HIERARCHY
ROOT Hips
{
    OFFSET   0.000000   0.000000   0.000000
    CHANNELS 6 Xposition Yposition Zposition Zrotation Xrotation Yrotation
    JOINT Chest
    {
        OFFSET   0.000000   8.007240   0.000000
        CHANNELS 3 Zrotation Xrotation Yrotation
        JOINT Chest2
        {
            OFFSET   0.000000  22.077100   0.000000
            CHANNELS 3 Zrotation Xrotation Yrotation
            JOINT Neck
            {
                OFFSET   0.000000  23.254800   0.000000
                CHANNELS 3 Zrotation Xrotation Yrotation
                JOINT Head
                {
                    OFFSET   0.000000  14.370000   1.956600
                    CHANNELS 3 Zrotation Xrotation Yrotation
                    End Site
                    {
                        OFFSET   0.000000  19.566000   0.000000
                    }
                }
            }
            JOINT LeftCollar
            {
                OFFSET   3.911900  19.017000  -0.467064
                CHANNELS 3 Zrotation Xrotation Yrotation
                JOINT LeftShoulder
                {
                    OFFSET  10.383700   0.000000   0.000000
                    CHANNELS 3 Zrotation Xrotation Yrotation
                    JOINT LeftElbow
                    {
                        OFFSET  26.662100   0.001476   0.000517
                        CHANNELS 3 Zrotation Xrotation Yrotation
                        JOINT LeftWrist
                        {
                            OFFSET  28.869000  -0.000025  -0.000106
                            CHANNELS 3 Zrotation Xrotation Yrotation
                            JOINT LeftFinger0
                            {
                                OFFSET   2.044660  -2.323460   3.252850
                                CHANNELS 3 Zrotation Xrotation Yrotation
                                JOINT LeftFinger01
                                {
                                    OFFSET   3.088130   0.000000   0.000000
                                    CHANNELS 3 Zrotation Xrotation Yrotation
                                    JOINT LeftFinger02
                                    {
                                        OFFSET   2.639460   0.000000   0.000000
                                        CHANNELS 3 Zrotation Xrotation Yrotation
                                        End Site
                                        {
                                            OFFSET   2.582190   0.000000   0.000000
                                        }
                                    }
                                }
                            }
                            JOINT LeftFinger1
                            {
                                OFFSET   8.364480   0.000000   3.252850
                                CHANNELS 3 Zrotation Xrotation Yrotation
                                JOINT LeftFinger11
                                {
                                    OFFSET   4.646930   0.000000   0.000000
                                    CHANNELS 3 Zrotation Xrotation Yrotation
                                    JOINT LeftFinger12
                                    {
                                        OFFSET   2.323460   0.000000   0.000000
                                        CHANNELS 3 Zrotation Xrotation Yrotation
                                        End Site
                                        {
                                            OFFSET   2.273050   0.000000   0.000000
                                        }
                                    }
                                }
                            }
                            JOINT LeftFinger2
                            {
                                OFFSET   8.364490   0.000015   1.078090
                                CHANNELS 3 Zrotation Xrotation Yrotation
                                JOINT LeftFinger21
                                {
                                    OFFSET   5.111620   0.000000   0.000000
                                    CHANNELS 3 Zrotation Xrotation Yrotation
                                    JOINT LeftFinger22
                                    {
                                        OFFSET   2.788160   0.000016   0.000000
                                        CHANNELS 3 Zrotation Xrotation Yrotation
                                        End Site
                                        {
                                            OFFSET   2.727660   0.000000   0.000000
                                        }
                                    }
                                }
                            }
                            JOINT LeftFinger3
                            {
                                OFFSET   7.899780   0.000017  -1.078090
                                CHANNELS 3 Zrotation Xrotation Yrotation
                                JOINT LeftFinger31
                                {
                                    OFFSET   4.646930   0.000000   0.000000
                                    CHANNELS 3 Zrotation Xrotation Yrotation
                                    JOINT LeftFinger32
                                    {
                                        OFFSET   2.323470   0.000000   0.000000
                                        CHANNELS 3 Zrotation Xrotation Yrotation
                                        End Site
                                        {
                                            OFFSET   2.273050   0.000000   0.000000
                                        }
                                    }
                                }
                            }
                            JOINT LeftFinger4
                            {
                                OFFSET   7.435090   0.000000  -3.252850
                                CHANNELS 3 Zrotation Xrotation Yrotation
                                JOINT LeftFinger41
                                {
                                    OFFSET   3.717550   0.000000   0.000000
                                    CHANNELS 3 Zrotation Xrotation Yrotation
                                    JOINT LeftFinger42
                                    {
                                        OFFSET   1.858770   0.000000   0.000000
                                        CHANNELS 3 Zrotation Xrotation Yrotation
                                        End Site
                                        {
                                            OFFSET   1.818440   0.000000   0.000000
                                        }
                                    }
                                }
                            }
                        }
                    }
                }
            }
            JOINT RightCollar
            {
                OFFSET  -3.911900  19.017000  -0.467063
                CHANNELS 3 Zrotation Xrotation Yrotation
                JOINT RightShoulder
                {
                    OFFSET -10.383700   0.000019   0.000000
                    CHANNELS 3 Zrotation Xrotation Yrotation
                    JOINT RightElbow
                    {
                        OFFSET -26.662100   0.001175   0.000102
                        CHANNELS 3 Zrotation Xrotation Yrotation
                        JOINT RightWrist
                        {
                            OFFSET -28.869000   0.000016  -0.000079
                            CHANNELS 3 Zrotation Xrotation Yrotation
                            JOINT RightFinger0
                            {
                                OFFSET  -2.044660  -2.323490   3.252850
                                CHANNELS 3 Zrotation Xrotation Yrotation
                                JOINT RightFinger01
                                {
                                    OFFSET  -3.088140   0.000000   0.000000
                                    CHANNELS 3 Zrotation Xrotation Yrotation
                                    JOINT RightFinger02
                                    {
                                        OFFSET  -2.639460   0.000000   0.000000
                                        CHANNELS 3 Zrotation Xrotation Yrotation
                                        End Site
                                        {
                                            OFFSET  -2.582190   0.000000   0.000000
                                        }
                                    }
                                }
                            }
                            JOINT RightFinger1
                            {
                                OFFSET  -8.364480   0.000000   3.252850
                                CHANNELS 3 Zrotation Xrotation Yrotation
                                JOINT RightFinger11
                                {
                                    OFFSET  -4.646930   0.000000   0.000000
                                    CHANNELS 3 Zrotation Xrotation Yrotation
                                    JOINT RightFinger12
                                    {
                                        OFFSET  -2.323470   0.000000   0.000000
                                        CHANNELS 3 Zrotation Xrotation Yrotation
                                        End Site
                                        {
                                            OFFSET  -2.273050   0.000000   0.000000
                                        }
                                    }
                                }
                            }
                            JOINT RightFinger2
                            {
                                OFFSET  -8.364480   0.000000   1.078090
                                CHANNELS 3 Zrotation Xrotation Yrotation
                                JOINT RightFinger21
                                {
                                    OFFSET  -5.111620   0.000000   0.000000
                                    CHANNELS 3 Zrotation Xrotation Yrotation
                                    JOINT RightFinger22
                                    {
                                        OFFSET  -2.788160   0.000000   0.000000
                                        CHANNELS 3 Zrotation Xrotation Yrotation
                                        End Site
                                        {
                                            OFFSET  -2.727660   0.000000   0.000000
                                        }
                                    }
                                }
                            }
                            JOINT RightFinger3
                            {
                                OFFSET  -7.899780   0.000000  -1.078090
                                CHANNELS 3 Zrotation Xrotation Yrotation
                                JOINT RightFinger31
                                {
                                    OFFSET  -4.646930   0.000000   0.000000
                                    CHANNELS 3 Zrotation Xrotation Yrotation
                                    JOINT RightFinger32
                                    {
                                        OFFSET  -2.323470   0.000000   0.000000
                                        CHANNELS 3 Zrotation Xrotation Yrotation
                                        End Site
                                        {
                                            OFFSET  -2.273050   0.000000   0.000000
                                        }
                                    }
                                }
                            }
                            JOINT RightFinger4
                            {
                                OFFSET  -7.435090   0.000000  -3.252850
                                CHANNELS 3 Zrotation Xrotation Yrotation
                                JOINT RightFinger41
                                {
                                    OFFSET  -3.717550   0.000000   0.000000
                                    CHANNELS 3 Zrotation Xrotation Yrotation
                                    JOINT RightFinger42
                                    {
                                        OFFSET  -1.858770   0.000000   0.000000
                                        CHANNELS 3 Zrotation Xrotation Yrotation
                                        End Site
                                        {
                                            OFFSET  -1.818440   0.000000   0.000000
                                        }
                                    }
                                }
                            }
                        }
                    }
                }
            }
        }
    }
    JOINT LeftHip
    {
        OFFSET   9.783040   0.000000   0.000000
        CHANNELS 3 Zrotation Xrotation Yrotation
        JOINT LeftKnee
        {
            OFFSET   0.000032 -41.789100  -0.002222
            CHANNELS 3 Zrotation Xrotation Yrotation
            JOINT LeftAnkle
            {
                OFFSET   0.000087 -41.133200  -0.000135
                CHANNELS 3 Zrotation Xrotation Yrotation
                JOINT LeftToe
                {
                    OFFSET   0.000000  -6.358960  14.674500
                    CHANNELS 3 Zrotation Xrotation Yrotation
                    End Site
                    {
                        OFFSET   0.000000   0.000000   3.913200
                    }
                }
            }
        }
    }
    JOINT RightHip
    {
        OFFSET  -9.783040   0.000000   0.000000
        CHANNELS 3 Zrotation Xrotation Yrotation
        JOINT RightKnee
        {
            OFFSET   0.000047 -41.789100  -0.000896
            CHANNELS 3 Zrotation Xrotation Yrotation
            JOINT RightAnkle
            {
                OFFSET  -0.000117 -41.133300  -0.000248
                CHANNELS 3 Zrotation Xrotation Yrotation
                JOINT RightToe
                {
                    OFFSET   0.000000  -6.358970  14.674500
                    CHANNELS 3 Zrotation Xrotation Yrotation
                    End Site
                    {
                        OFFSET   0.000000   0.000000   3.913200
                    }
                }
            }
        }
    }
}
MOTION
Frames: 4
Frame Time:   0.016667
 -2.657720  89.527800   1.261160  -0.152662 -11.755400   7.859400   1.909970   8.389370   0.482936   3.809980  16.790200   0.690685   4.096350  -1.583950   0.117130   6.743790  -3.162620  -2.218260  -9.846850  -5.522380  -0.886504 -65.538600  20.988500 -10.352300  -2.430350  -6.012100  -8.617210   3.796490  -5.990050  10.112000  40.495300  29.096400 -68.991300 -18.619100   0.007089   0.002464  -4.309550   0.001963   0.000000 -34.042300   8.207250 -11.931400 -28.555700  -0.013688  -0.004045 -19.989000  -0.009429  -0.004398 -28.497500   4.328490  -7.914610 -42.503500   0.007683   0.013049 -28.307300   0.005144  -0.000666 -28.775400   1.119040  -2.037180 -41.831400  -0.000262  -0.000809 -27.859700  -0.005257   0.003510 -36.412700  -0.102065   0.138361 -54.619200   0.000000  -0.004351 -36.376400   0.001720  -0.000595  -1.759680  -8.436390  14.284000  47.939200  -1.906210  64.867700 -12.017600 -16.246900  32.722300 -82.822200 -65.718600 -51.303300 -43.229300  34.703500  74.067300  22.979200   0.006437  -0.002577   6.489620   0.003239   0.002729  38.382300  11.226900  13.960800  32.545900  -0.007714  -0.075417  23.023500  -0.027723  -0.051282  30.974300   5.040290   8.385650  45.259500   0.001426  -0.055964  30.142800  -0.016222  -0.033123  31.707900   3.470740   5.686160  48.128800   0.006302  -0.071623  31.946700  -0.018651  -0.042604  43.170200  -2.051140  -2.164050  64.798000  -0.009553  -0.095307  43.155500  -0.045778  -0.044080   3.847100  13.899700   1.513190   1.529050   0.499265   8.719410  -4.727080  -1.172380  -3.365010  -0.000000   0.000000  -0.000000   2.103550  10.941900  -5.670270   2.439820   4.016280  -8.135290  -6.487510  -2.867030  -7.206880   0.000000   0.000000   0.000000
 -2.665530  89.534000   1.253650  -0.206251 -11.780100   7.583070   1.895880   8.397730   0.565602   3.768940  16.809500   0.860584   4.142700  -1.531380   0.117147   6.819790  -3.056490  -2.324980  -9.831660  -5.556190  -0.928064 -65.464000  21.147300 -10.495600  -2.417440  -6.011690  -8.610100   3.868380  -5.915200  10.064200  40.399800  29.021100 -68.961700 -18.339600   0.007082   0.002441  -4.169800   0.001911   0.000097 -34.053900   8.223080 -11.947900 -28.568500  -0.030246  -0.003787 -19.997900  -0.019803  -0.004971 -28.475800   4.491050  -8.214260 -42.574100   0.009517   0.014607 -28.354300   0.005554   0.001972 -28.774800   1.136440  -2.068790 -41.901700  -0.000062  -0.000736 -27.906500  -0.005437   0.003515 -36.446100  -0.110499   0.149521 -54.669300   0.000000  -0.004364 -36.409800   0.001786  -0.000479  -1.755120  -8.586600  14.343300  47.713300  -2.012660  65.593000 -11.682700 -16.442500  31.440300 -87.521300 -63.532700 -55.054100 -41.451900  33.660200  73.882500  23.928900  -0.001166  -0.002329   6.964470  -0.000762   0.002736  32.202200  10.731500  16.604500  27.655300   0.002938  -0.039385  19.373000  -0.007644  -0.028525  28.836200   5.298070   9.585380  38.615600   0.001421  -0.035610  25.726500  -0.006523  -0.022057  29.029900   3.981900   7.142720  41.505600   0.004858  -0.046137  27.537300  -0.008305  -0.029189  38.794400  -0.787974  -0.854373  58.180800  -0.005505  -0.063028  38.748500  -0.028856  -0.031914   3.815910  13.963700   1.473020   1.557990   0.468602   8.847780  -4.712890  -1.180230  -3.175490  -0.000000   0.000000  -0.000000   2.090640  10.951800  -5.702550   2.419160   4.017730  -8.023520  -6.467130  -2.857230  -7.013320  -0.000000   0.000000   0.000000
 -2.678140  89.539000   1.246950  -0.256865 -11.800600   7.325530   1.880160   8.405430   0.659223   3.722510  16.827800   1.053060   4.186800  -1.508210   0.117281   6.891040  -3.009360  -2.509780  -9.825250  -5.583330  -0.981124 -65.391700  21.252800 -10.647000  -2.398010  -6.008050  -8.609030   3.958790  -5.889190  10.027800  40.338700  28.962100 -68.946000 -18.137500   0.007069   0.002408  -4.068750   0.001858   0.000206 -34.081800   8.247160 -11.970400 -28.593700  -0.044041  -0.001985 -20.015600  -0.030317  -0.005263 -28.459300   4.607380  -8.429200 -42.685900   0.010593   0.015494 -28.428800   0.005761   0.006438 -28.774000   1.154420  -2.101380 -42.039900   0.000154  -0.000461 -27.998500  -0.005596   0.003528 -36.513400  -0.127514   0.171974 -54.770400   0.000000  -0.004374 -36.477100   0.001849  -0.000360  -1.747700  -8.732500  14.375500  47.708300  -2.212960  66.072000 -11.385600 -16.496900  30.401200 -89.454800 -62.472100 -56.412900 -39.966500  32.901000  73.944900  24.673500  -0.003744  -0.002294   7.336740  -0.002196   0.002744  26.741700  10.020400  18.983900  23.260100   0.007434  -0.006892  16.239100   0.004035  -0.005768  27.053000   5.547590  10.706300  32.115400   0.001386  -0.015257  21.388800  -0.000254  -0.010991  27.513900   4.462640   8.457930  34.836700   0.002545  -0.019733  23.201200  -0.001151  -0.013954  34.595300   0.310199   0.486602  51.890600  -0.001921  -0.029799  34.559200  -0.012285  -0.015805   3.791630  14.021000   1.435720   1.580570   0.438974   8.960620  -4.697710  -1.188320  -2.992830  -0.000000   0.000000  -0.000000   2.078290  10.959400  -5.720530   2.403460   4.018700  -7.929720  -6.445350  -2.844270  -6.830870   0.000000   0.000000  -0.000000
 -2.689590  89.544300   1.242270  -0.299659 -11.814000   7.126810   1.867010   8.413260   0.750748   3.681550  16.846900   1.240920   4.222730  -1.520170   0.117513   6.950490  -3.032470  -2.712760  -9.833690  -5.615020  -1.039850 -65.327400  21.279800 -10.775900  -2.381160  -5.967070  -8.688660   4.046040  -5.962420  10.045000  40.251600  28.831700 -68.829100 -18.249400   0.007062   0.002401  -4.124690   0.001799   0.000283 -34.106400   8.304930 -12.044600 -28.623500  -0.046842   0.011218 -20.036500  -0.035336   0.002190 -28.458900   4.563080  -8.349280 -42.816100   0.003595   0.014927 -28.515500   0.000941   0.010532 -28.771300   1.197550  -2.179680 -42.199500   0.000271   0.002203 -28.104800  -0.005758   0.003536 -36.595600  -0.148317   0.199314 -54.893800   0.000000  -0.004382 -36.559300   0.001924  -0.000300  -1.740220  -8.848250  14.378000  47.785300  -2.426380  66.211400 -11.193900 -16.219700  29.925900 -89.961100 -62.115900 -56.702800 -39.135100  32.420500  74.015600  25.114600  -0.006633  -0.003261   7.557280  -0.003715   0.002739  23.501200   9.405190  20.404500  20.617900   0.004441  -0.007897  14.396000   0.001881  -0.006300  26.275100   5.751770  11.443700  27.228900   0.001014  -0.015880  18.134400  -0.000849  -0.011210  27.255200   4.799880   9.264100  30.047200   0.001429  -0.018661  20.018100  -0.001585  -0.011831  31.245300   1.036410   1.665730  46.895600  -0.000027  -0.011896  31.232500  -0.003798  -0.007209   3.781170  14.063900   1.394030   1.594720   0.421218   9.045710  -4.683720  -1.203500  -2.836910  -0.000000   0.000000  -0.000000   2.063270  10.961100  -5.712440   2.397860   4.012200  -7.864440  -6.421730  -2.826660  -6.689950  -0.000000   0.000000  -0.000000
